<?xml version="1.0" standalone="no"?>
<!DOCTYPE svg PUBLIC "-//W3C//DTD SVG 20010904//EN"
 "http://www.w3.org/TR/2001/REC-SVG-20010904/DTD/svg10.dtd">
<svg version="1.0" xmlns="http://www.w3.org/2000/svg"
 width="512.000000pt" height="512.000000pt" viewBox="0 0 512.000000 512.000000"
 preserveAspectRatio="xMidYMid meet">
<metadata>
Created by potrace 1.14, written by Peter Selinger 2001-2017
</metadata>
<g transform="translate(0.000000,512.000000) scale(0.100000,-0.100000)"
fill="#000000" stroke="none">
<path d="M2517 5114 c-1 -1 -22 -4 -47 -7 -153 -18 -302 -96 -409 -213 -114
-125 -173 -275 -174 -444 -1 -111 13 -189 43 -253 11 -23 20 -45 20 -49 0 -19
86 -136 135 -183 72 -70 86 -80 157 -116 117 -59 164 -71 293 -75 104 -3 131
0 200 21 150 44 297 149 371 265 16 25 32 47 35 50 8 6 59 136 64 162 2 11 7
28 10 39 11 35 13 185 3 240 -44 244 -219 449 -451 528 -62 22 -237 46 -250
35z"/>
<path d="M817 4324 c-152 -29 -271 -112 -351 -245 -38 -64 -63 -140 -69 -216
-4 -47 -2 -52 22 -65 27 -13 255 -163 275 -179 6 -5 45 -34 86 -65 254 -186
496 -414 636 -599 66 -87 124 -176 124 -190 0 -8 4 -15 8 -15 7 0 71 -127 93
-185 30 -80 39 -110 54 -185 20 -95 26 -264 13 -349 -11 -75 -47 -213 -59
-227 -5 -6 -7 -13 -4 -16 5 -5 -103 -230 -115 -238 -4 -3 -13 -16 -20 -30 -36
-70 -185 -252 -300 -369 -77 -78 -244 -226 -293 -260 -12 -8 -31 -24 -42 -34
-11 -11 -31 -26 -45 -35 -14 -9 -43 -31 -65 -48 -52 -42 -355 -244 -365 -244
-5 0 -7 -19 -5 -43 20 -247 205 -443 451 -476 54 -8 55 -7 85 28 47 57 49 60
49 71 0 5 5 10 10 10 6 0 10 6 10 14 0 8 4 16 8 18 4 1 43 50 87 108 44 58 83
107 86 110 3 3 39 43 79 90 79 93 270 285 338 340 24 19 54 43 65 54 12 10 33
26 47 35 14 9 33 23 43 31 108 92 430 239 577 264 163 28 371 24 478 -8 9 -3
28 -7 42 -10 75 -14 280 -102 365 -155 22 -14 42 -25 45 -26 10 0 146 -100
225 -164 135 -110 322 -303 465 -480 19 -23 42 -51 51 -61 8 -10 23 -29 32
-42 109 -147 149 -203 156 -216 19 -33 161 -4 269 54 29 15 52 32 52 36 0 4 4
8 10 8 15 0 121 117 117 130 -1 3 8 19 21 37 12 17 22 38 22 45 0 8 3 18 8 22
4 4 7 11 7 14 1 4 5 25 9 47 20 96 18 103 -27 136 -23 16 -50 36 -60 44 -9 8
-19 15 -22 15 -3 0 -15 9 -27 19 -13 11 -84 68 -158 127 -118 94 -376 340
-451 429 -157 189 -294 413 -339 555 -7 25 -17 50 -21 55 -4 6 -8 15 -8 20 -1
6 -6 26 -11 45 -8 32 -12 48 -24 120 -18 98 -22 234 -11 311 3 21 8 51 10 66
25 186 138 443 282 643 36 49 139 175 168 206 17 17 53 56 81 85 117 123 285
269 440 385 43 32 84 64 90 69 6 6 22 17 34 25 68 46 71 50 65 93 -10 77 -17
102 -46 165 -36 79 -90 149 -154 197 -51 39 -136 82 -177 91 -78 16 -105 20
-124 15 -11 -3 -51 -44 -89 -91 -71 -88 -76 -94 -172 -199 -98 -109 -228 -235
-324 -316 -32 -27 -190 -147 -215 -163 -10 -6 -39 -26 -64 -42 -75 -50 -279
-147 -377 -179 -82 -26 -126 -37 -238 -58 -39 -7 -285 -7 -350 0 -131 14 -314
73 -470 152 -103 52 -234 131 -285 172 -8 6 -53 42 -100 79 -164 130 -416 385
-532 539 -5 6 -24 28 -43 50 -19 22 -35 43 -35 46 0 14 -38 15 -103 3z"/>
</g>
</svg>
